<svg xmlns="http://www.w3.org/2000/svg" width="40" height="40" fill="currentColor" viewBox="0 0 40 40">
  <g class="bulb_on">
    <g class="translate_10_0_0_50_10_0_90_0_0">
      <g class="rotate_0_0_50_45_100_0">
        <g class="bulb">
          <g class="color_yellow">
            <path fill="#F6C825" fill-rule="evenodd" d="M6 13C6 5.82 11.82 0 19 0s13 5.82 13 13a12.94 12.94 0 01-2.021 6.965L30 20s-.139.177-.37.487c-.11.155-.223.308-.34.458C27.822 22.959 24.614 27.678 25 30H13s.408-2.854-3.563-8.194A13.053 13.053 0 018.2 20.237 40.374 40.374 0 008 20l.02-.038A12.94 12.94 0 016 13z" class="glass" clip-rule="evenodd"/>
          </g>
          <g class="color_gray55">
            <rect width="16" height="3" x="11" y="32" fill="#999DB0" class="Rectangle" rx="1.5"/>
            <rect width="8" height="3" fill="#999DB0" class="Rectangle_2" rx="1.5" transform="matrix(-1 0 0 1 23 37)"/>
          </g>
          <g class="color_orange">
            <path stroke="#ECA209" stroke-linecap="square" stroke-width="2" d="M19 29V19" class="Line"/>
            <path stroke="#ECA209" stroke-linecap="round" stroke-width="2" d="M19 19l6-6" class="Line_2"/>
            <path stroke="#ECA209" stroke-linecap="round" stroke-width="2" d="M19 19l-6-6" class="Line_3"/>
          </g>
        </g>
      </g>
    </g>
  </g>
</svg>
