<svg width="50" height="50" viewBox="0 0 50 50" fill="none"
    xmlns="http://www.w3.org/2000/svg">
    <g id="washing_on">
        <g id="washing_on_2">
            <g id="color_white">
                <path id="Device Frame" fill-rule="evenodd" clip-rule="evenodd" d="M11 11.017C11 8.80788 12.7909 7.01702 15 7.01702H35C37.2091 7.01702 39 8.80788 39 11.017V38.3109C39 40.5201 37.2091 42.3109 35 42.3109H15C12.7909 42.3109 11 40.5201 11 38.3109L11 11.017Z" fill="white"/>
            </g>
            <g id="color_gray75" opacity="0.25">
                <path id="Device Frame Copy" fill-rule="evenodd" clip-rule="evenodd" d="M11 11.017C11 8.80788 12.7909 7.01702 15 7.01702H35C37.2091 7.01702 39 8.80788 39 11.017V38.3109C39 40.5201 37.2091 42.3109 35 42.3109H15C12.7909 42.3109 11 40.5201 11 38.3109L11 11.017Z" fill="#C7C9D7"/>
            </g>
            <g id="color_gray75_2">
                <path id="Top" fill-rule="evenodd" clip-rule="evenodd" d="M39 15.084H11V11.017C11 8.80788 12.7909 7.01701 15 7.01701H35C37.2091 7.01701 39 8.80787 39 11.017V15.084Z" fill="#C7C9D7"/>
            </g>
            <g id="color_gray55" opacity="0.25">
                <path id="Top_2" fill-rule="evenodd" clip-rule="evenodd" d="M39 15.084H11V11.017C11 8.80788 12.7909 7.01701 15 7.01701H35C37.2091 7.01701 39 8.80787 39 11.017V15.084Z" fill="#999DB0"/>
            </g>
            <g id="Door">
                <g id="color_gray55_2">
                    <circle id="Outer Ring" cx="25" cy="29" r="12" fill="#999DB0"/>
                </g>
                <g id="color_gray33">
                    <circle id="Inner Ring Copy" cx="25" cy="29" r="9" fill="#5F6373"/>
                </g>
                <g id="color_gray25" opacity="0.5">
                    <circle id="Inner Ring" cx="25" cy="29" r="9" fill="#2B2D3C"/>
                </g>
                <g id="Bulleye">
                    <g id="color_gray20">
                        <circle id="Ring" cx="25" cy="29" r="7" transform="rotate(-180 25 29)" fill="#262836"/>
                    </g>
                    <mask id="mask0" mask-type="alpha" maskUnits="userSpaceOnUse" x="18" y="22" width="14" height="14">
                        <circle id="Oval 14 Copy 7" cx="25" cy="29" r="7" transform="rotate(-180 25 29)" fill="#262836"/>
                    </mask>
                    <g mask="url(#mask0)">
                        <g id="translate_0_0_0_100_73_0">
                            <g id="rotate_0_0_25_-5_50_0_75_5_100_0">
                                <g id="color_blue">
                                    <path id="Water" d="M-73 41L-73 32C-73 32 -70.5247 33 -62.2739 33C-58.2468 33 -56.3818 32.2853 -54.4724 31.5536C-52.4698 30.7861 -50.4184 30 -45.7723 30C-41.0069 30 -38.2887 30.4135 -35.7068 30.8063C-33.3713 31.1616 -31.1473 31.5 -27.6206 31.5C-24.0055 31.5 -21.9548 30.4335 -19.8502 29.3388C-17.6316 28.185 -15.3531 27 -11.119 27C-6.28583 27 -3.71762 28.7157 -1.59005 30.1371C-1.59005 30.1371 -0.392849 31 2.08239 32C4.55757 33 7.79687 33 10.333 33H10.3332C14.3603 33 16.2253 32.2853 18.1347 31.5536C20.1373 30.7861 22.1888 30 26.8348 30C31.6002 30 34.3184 30.4135 36.9003 30.8063C39.2358 31.1616 41.4598 31.5 44.9865 31.5C48.6016 31.5 50.6523 30.4335 52.757 29.3388C54.9755 28.185 57.2541 27 61.4881 27C66.3213 27 68.8895 28.7157 71.0171 30.1371C72.5215 31.1421 73.8056 32 75.5144 32C79.6398 32 73.8642 41 73.8642 41L-73 41Z" fill="#228ACE"/>
                                </g>
                                <g id="color_white_2" opacity="0.1">
                                    <path id="Water_2" d="M-73 41L-73 32C-73 32 -70.5247 33 -62.2739 33C-58.2468 33 -56.3818 32.2853 -54.4724 31.5536C-52.4698 30.7861 -50.4184 30 -45.7723 30C-41.0069 30 -38.2887 30.4135 -35.7068 30.8063C-33.3713 31.1616 -31.1473 31.5 -27.6206 31.5C-24.0055 31.5 -21.9548 30.4335 -19.8502 29.3388C-17.6316 28.185 -15.3531 27 -11.119 27C-6.28583 27 -3.71762 28.7157 -1.59005 30.1371C-1.59005 30.1371 -0.392849 31 2.08239 32C4.55757 33 7.79687 33 10.333 33H10.3332C14.3603 33 16.2253 32.2853 18.1347 31.5536C20.1373 30.7861 22.1888 30 26.8348 30C31.6002 30 34.3184 30.4135 36.9003 30.8063C39.2358 31.1616 41.4598 31.5 44.9865 31.5C48.6016 31.5 50.6523 30.4335 52.757 29.3388C54.9755 28.185 57.2541 27 61.4881 27C66.3213 27 68.8895 28.7157 71.0171 30.1371C72.5215 31.1421 73.8056 32 75.5144 32C79.6398 32 73.8642 41 73.8642 41L-73 41Z" fill="white"/>
                                </g>
                            </g>
                        </g>
                    </g>
                </g>
            </g>
            <g id="color_gray40">
                <ellipse id="Knob1" cx="15" cy="11.0504" rx="2" ry="2.01681" fill="#6F7383"/>
                <ellipse id="Knob2" cx="21" cy="11.0504" rx="2" ry="2.01681" fill="#6F7383"/>
            </g>
            <g id="color_gray25_2" opacity="0.8">
                <rect id="Display" x="29" y="9.03362" width="8" height="4.03362" rx="2" fill="#2B2D3C"/>
            </g>
        </g>
    </g>
</svg>
