<svg width="50" height="50" viewBox="0 0 50 50" fill="none" xmlns="http://www.w3.org/2000/svg">
<g id="washing_on">
<g id="washing_on_2">
<g id="color_white">
<path id="Device Frame" fill-rule="evenodd" clip-rule="evenodd" d="M10 10.0002C10 7.7911 11.7909 6.00024 14 6.00024H36C38.2091 6.00024 40 7.7911 40 10.0002V41C40 43.2091 38.2091 45 36 45H14C11.7909 45 10 43.2091 10 41L10 10.0002Z" fill="white"/>
</g>
<g id="color_gray75" opacity="0.25">
<path id="Device Frame Copy" fill-rule="evenodd" clip-rule="evenodd" d="M10 10.0002C10 7.7911 11.7909 6.00024 14 6.00024H36C38.2091 6.00024 40 7.7911 40 10.0002V41C40 43.2091 38.2091 45 36 45H14C11.7909 45 10 43.2091 10 41L10 10.0002Z" fill="#C7C9D7"/>
</g>
<g id="color_gray75_2">
<path id="Top" fill-rule="evenodd" clip-rule="evenodd" d="M40 15H10V10C10 7.79086 11.7909 6 14 6H36C38.2091 6 40 7.79086 40 10V15Z" fill="#C7C9D7"/>
</g>
<g id="color_gray55" opacity="0.25">
<path id="Top_2" fill-rule="evenodd" clip-rule="evenodd" d="M40 15H10V10C10 7.79086 11.7909 6 14 6H36C38.2091 6 40 7.79086 40 10V15Z" fill="#999DB0"/>
</g>
<g id="Door">
<g id="color_gray55_2">
<circle id="Outer Ring" cx="25" cy="30" r="13" fill="#999DB0"/>
</g>
<g id="rotate_0_0_100_360">
<g id="color_gray33">
<circle id="Inner Ring Copy" cx="25" cy="30" r="10" fill="#5F6373"/>
</g>
<g id="color_gray25" opacity="0.5">
<circle id="Inner Ring" cx="25" cy="30" r="10" fill="#2B2D3C"/>
</g>
</g>
<g id="Bulleye">
<g id="color_gray20">
<circle id="Ring" cx="25" cy="30" r="8" transform="rotate(-180 25 30)" fill="#262836"/>
</g>
<mask id="mask0" mask-type="alpha" maskUnits="userSpaceOnUse" x="17" y="22" width="16" height="16">
<circle id="Oval 14 Copy 7" cx="25" cy="30" r="8" transform="rotate(-180 25 30)" fill="#262836"/>
</mask>
<g mask="url(#mask0)">
<g id="translate_0_0_0_100_85_0">
<g id="rotate_0_0_25_-5_50_0_75_5_100_0">
<g id="color_blue">
<path id="Water" d="M-85 44L-85 33.7143C-85 33.7143 -82.1122 34.8571 -72.4863 34.8571C-67.788 34.8571 -65.6121 34.0403 -63.3845 33.2041C-61.0481 32.327 -58.6548 31.4286 -53.2344 31.4286C-47.6748 31.4286 -44.5035 31.9012 -41.4913 32.3501C-38.7666 32.7562 -36.1719 33.1428 -32.0574 33.1428C-27.8398 33.1428 -25.4473 31.924 -22.9918 30.673C-20.4035 29.3543 -17.7452 28 -12.8055 28C-7.16681 28 -4.17056 29.9608 -1.6884 31.5852C-1.6884 31.5852 -0.291654 32.5714 2.59612 33.7143C5.48383 34.8571 9.26302 34.8571 12.2219 34.8571H12.2221C16.9204 34.8571 19.0962 34.0403 21.3238 33.2041C23.6602 32.327 26.0536 31.4286 31.4739 31.4286C37.0336 31.4286 40.2048 31.9012 43.2171 32.3501C45.9418 32.7562 48.5364 33.1428 52.651 33.1428C56.8686 33.1428 59.261 31.924 61.7165 30.673C64.3048 29.3543 66.9631 28 71.9028 28C77.5415 28 80.5378 29.9608 83.0199 31.5852C84.7751 32.7339 86.2732 33.7143 88.2668 33.7143C93.0798 33.7143 86.3416 44 86.3416 44L-85 44Z" fill="#228ACE"/>
</g>
<g id="color_white_2" opacity="0.1">
<path id="Water_2" d="M-85 44L-85 33.7143C-85 33.7143 -82.1122 34.8571 -72.4863 34.8571C-67.788 34.8571 -65.6121 34.0403 -63.3845 33.2041C-61.0481 32.327 -58.6548 31.4286 -53.2344 31.4286C-47.6748 31.4286 -44.5035 31.9012 -41.4913 32.3501C-38.7666 32.7562 -36.1719 33.1428 -32.0574 33.1428C-27.8398 33.1428 -25.4473 31.924 -22.9918 30.673C-20.4035 29.3543 -17.7452 28 -12.8055 28C-7.16681 28 -4.17056 29.9608 -1.6884 31.5852C-1.6884 31.5852 -0.291654 32.5714 2.59612 33.7143C5.48383 34.8571 9.26302 34.8571 12.2219 34.8571H12.2221C16.9204 34.8571 19.0962 34.0403 21.3238 33.2041C23.6602 32.327 26.0536 31.4286 31.4739 31.4286C37.0336 31.4286 40.2048 31.9012 43.2171 32.3501C45.9418 32.7562 48.5364 33.1428 52.651 33.1428C56.8686 33.1428 59.261 31.924 61.7165 30.673C64.3048 29.3543 66.9631 28 71.9028 28C77.5415 28 80.5378 29.9608 83.0199 31.5852C84.7751 32.7339 86.2732 33.7143 88.2668 33.7143C93.0798 33.7143 86.3416 44 86.3416 44L-85 44Z" fill="white"/>
</g>
</g>
</g>
</g>
</g>
</g>
<g id="color_gray40">
<circle id="Knob1" cx="14" cy="10" r="2" fill="#6F7383"/>
<circle id="Knob2" cx="21" cy="10" r="2" fill="#6F7383"/>
</g>
<g id="color_gray25_2" opacity="0.8">
<rect id="Display" x="29" y="8.03362" width="9" height="4.03362" rx="2" fill="#2B2D3C"/>
</g>
</g>
</g>
</svg>
